HIERARCHY
ROOT Hips
{
	OFFSET 0.000000 121.760803 0.000000
	CHANNELS 6 Xposition Yposition Zposition Xrotation Yrotation Zrotation 
	JOINT Spine
	{
		OFFSET 0.072000 7.257294 -0.789700
		CHANNELS 3 Xrotation Yrotation Zrotation
		JOINT Spine1
		{
			OFFSET 0.000000 12.508769 -0.658067
			CHANNELS 3 Xrotation Yrotation Zrotation
			JOINT Spine1_split
			{
				OFFSET 0.000000 12.508769 -0.658067
				CHANNELS 3 Xrotation Yrotation Zrotation
				JOINT Spine2
				{
					OFFSET 0.000000 12.508769 -0.658067
					CHANNELS 3 Xrotation Yrotation Zrotation
					JOINT Neck
					{
						OFFSET 0.000000 14.033295 7.520400
						CHANNELS 3 Xrotation Yrotation Zrotation
						JOINT Head
						{
							OFFSET 0.000000 8.198502 5.703100
							CHANNELS 3 Xrotation Yrotation Zrotation
							JOINT HeadTop_End
							{
								OFFSET 0.000000 17.760803 13.332701
								CHANNELS 3 Xrotation Yrotation Zrotation
								End Site
								{
									OFFSET 0.000000 0.000000 0.000000
								}
							}
						}
					}
					JOINT LeftShoulder
					{
						OFFSET 6.292450 5.785301 -0.669000
						CHANNELS 3 Xrotation Yrotation Zrotation
						JOINT LeftShoulder_split
						{
							OFFSET 6.292450 5.785301 -0.669000
							CHANNELS 3 Xrotation Yrotation Zrotation
							JOINT LeftArm
							{
								OFFSET 13.907140 -6.093903 1.965100
								CHANNELS 3 Xrotation Yrotation Zrotation
								JOINT LeftForeArm
								{
									OFFSET 34.140198 0.000000 0.000000
									CHANNELS 3 Xrotation Yrotation Zrotation
									JOINT LeftHand
									{
										OFFSET 40.960209 0.000000 0.000000
										CHANNELS 3 Xrotation Yrotation Zrotation
										JOINT LeftHandThumb1
										{
											OFFSET 10.006996 -7.170425 9.573125
											CHANNELS 3 Xrotation Yrotation Zrotation
											JOINT LeftHandThumb2
											{
												OFFSET 1.835007 -1.059448 1.059443
												CHANNELS 3 Xrotation Yrotation Zrotation
												JOINT LeftHandThumb3
												{
													OFFSET 2.112267 -1.219513 1.219518
													CHANNELS 3 Xrotation Yrotation Zrotation
													JOINT LeftHandThumb4
													{
														OFFSET 4.843811 -2.796570 2.796576
														CHANNELS 3 Xrotation Yrotation Zrotation
														End Site
														{
															OFFSET 0.000000 0.000000 0.000000
														}
													}
												}
											}
										}
										JOINT LeftHandIndex1
										{
											OFFSET 18.389847 -0.922348 4.596882
											CHANNELS 3 Xrotation Yrotation Zrotation
											JOINT LeftHandIndex2
											{
												OFFSET 4.711273 0.000000 0.000000
												CHANNELS 3 Xrotation Yrotation Zrotation
												JOINT LeftHandIndex3
												{
													OFFSET 2.886131 0.000000 0.000000
													CHANNELS 3 Xrotation Yrotation Zrotation
													JOINT LeftHandIndex4
													{
														OFFSET 6.145912 0.000000 0.000000
														CHANNELS 3 Xrotation Yrotation Zrotation
														End Site
														{
															OFFSET 0.000000 0.000000 0.000000
														}
													}
												}
											}
										}
										JOINT LeftHandMiddle1
										{
											OFFSET 18.013008 0.000000 0.000000
											CHANNELS 3 Xrotation Yrotation Zrotation
											JOINT LeftHandMiddle2
											{
												OFFSET 4.946693 0.000000 0.000000
												CHANNELS 3 Xrotation Yrotation Zrotation
												JOINT LeftHandMiddle3
												{
													OFFSET 3.342232 0.000000 0.000000
													CHANNELS 3 Xrotation Yrotation Zrotation
													JOINT LeftHandMiddle4
													{
														OFFSET 4.461754 0.000000 0.000000
														CHANNELS 3 Xrotation Yrotation Zrotation
														End Site
														{
															OFFSET 0.000000 0.000000 0.000000
														}
													}
												}
											}
										}
										JOINT LeftHandRing1
										{
											OFFSET 15.849892 -0.102921 -4.126150
											CHANNELS 3 Xrotation Yrotation Zrotation
											JOINT LeftHandRing2
											{
												OFFSET 3.527054 0.000000 0.000000
												CHANNELS 3 Xrotation Yrotation Zrotation
												JOINT LeftHandRing3
												{
													OFFSET 2.961098 0.000000 0.000000
													CHANNELS 3 Xrotation Yrotation Zrotation
													JOINT LeftHandRing4
													{
														OFFSET 4.927200 0.000000 0.000000
														CHANNELS 3 Xrotation Yrotation Zrotation
														End Site
														{
															OFFSET 0.000000 0.000000 0.000000
														}
													}
												}
											}
										}
										JOINT LeftHandPinky1
										{
											OFFSET 12.791824 -0.832031 -6.799156
											CHANNELS 3 Xrotation Yrotation Zrotation
											JOINT LeftHandPinky2
											{
												OFFSET 3.327133 0.000000 0.000000
												CHANNELS 3 Xrotation Yrotation Zrotation
												JOINT LeftHandPinky3
												{
													OFFSET 3.014900 0.000000 0.000000
													CHANNELS 3 Xrotation Yrotation Zrotation
													JOINT LeftHandPinky4
													{
														OFFSET 5.847786 0.000000 0.000000
														CHANNELS 3 Xrotation Yrotation Zrotation
														End Site
														{
															OFFSET 0.000000 0.000000 0.000000
														}
													}
												}
											}
										}
									}
								}
							}
						}
					}
					JOINT RightShoulder
					{
						OFFSET -6.292450 5.785301 -0.669000
						CHANNELS 3 Xrotation Yrotation Zrotation
						JOINT RightShoulder_split
						{
							OFFSET -6.292450 5.785301 -0.669000
							CHANNELS 3 Xrotation Yrotation Zrotation
							JOINT RightArm
							{
								OFFSET -13.907140 -6.093903 1.965100
								CHANNELS 3 Xrotation Yrotation Zrotation
								JOINT RightForeArm
								{
									OFFSET -34.140198 0.000000 0.000000
									CHANNELS 3 Xrotation Yrotation Zrotation
									JOINT RightHand
									{
										OFFSET -40.960209 0.000000 0.000000
										CHANNELS 3 Xrotation Yrotation Zrotation
										JOINT RightHandThumb1
										{
											OFFSET -10.007050 -7.170456 9.573117
											CHANNELS 3 Xrotation Yrotation Zrotation
											JOINT RightHandThumb2
											{
												OFFSET -1.835007 -1.059448 1.059443
												CHANNELS 3 Xrotation Yrotation Zrotation
												JOINT RightHandThumb3
												{
													OFFSET -2.112267 -1.219513 1.219518
													CHANNELS 3 Xrotation Yrotation Zrotation
													JOINT RightHandThumb4
													{
														OFFSET -4.843834 -2.796585 2.796590
														CHANNELS 3 Xrotation Yrotation Zrotation
														End Site
														{
															OFFSET 0.000000 0.000000 0.000000
														}
													}
												}
											}
										}
										JOINT RightHandIndex1
										{
											OFFSET -18.389870 -0.922424 4.596786
											CHANNELS 3 Xrotation Yrotation Zrotation
											JOINT RightHandIndex2
											{
												OFFSET -4.711273 0.000000 0.000000
												CHANNELS 3 Xrotation Yrotation Zrotation
												JOINT RightHandIndex3
												{
													OFFSET -2.886131 0.000000 0.000000
													CHANNELS 3 Xrotation Yrotation Zrotation
													JOINT RightHandIndex4
													{
														OFFSET -6.145920 0.000000 0.000000
														CHANNELS 3 Xrotation Yrotation Zrotation
														End Site
														{
															OFFSET 0.000000 0.000000 0.000000
														}
													}
												}
											}
										}
										JOINT RightHandMiddle1
										{
											OFFSET -18.013008 0.000000 0.000000
											CHANNELS 3 Xrotation Yrotation Zrotation
											JOINT RightHandMiddle2
											{
												OFFSET -4.946693 0.000000 0.000000
												CHANNELS 3 Xrotation Yrotation Zrotation
												JOINT RightHandMiddle3
												{
													OFFSET -3.342232 0.000000 0.000000
													CHANNELS 3 Xrotation Yrotation Zrotation
													JOINT RightHandMiddle4
													{
														OFFSET -4.461754 0.000000 0.000000
														CHANNELS 3 Xrotation Yrotation Zrotation
														End Site
														{
															OFFSET 0.000000 0.000000 0.000000
														}
													}
												}
											}
										}
										JOINT RightHandRing1
										{
											OFFSET -15.849876 -0.102936 -4.126237
											CHANNELS 3 Xrotation Yrotation Zrotation
											JOINT RightHandRing2
											{
												OFFSET -3.527054 0.000000 0.000000
												CHANNELS 3 Xrotation Yrotation Zrotation
												JOINT RightHandRing3
												{
													OFFSET -2.961098 0.000000 0.000000
													CHANNELS 3 Xrotation Yrotation Zrotation
													JOINT RightHandRing4
													{
														OFFSET -4.927200 0.000000 0.000000
														CHANNELS 3 Xrotation Yrotation Zrotation
														End Site
														{
															OFFSET 0.000000 0.000000 0.000000
														}
													}
												}
											}
										}
										JOINT RightHandPinky1
										{
											OFFSET -12.791786 -0.832077 -6.799222
											CHANNELS 3 Xrotation Yrotation Zrotation
											JOINT RightHandPinky2
											{
												OFFSET -3.327133 0.000000 0.000000
												CHANNELS 3 Xrotation Yrotation Zrotation
												JOINT RightHandPinky3
												{
													OFFSET -3.014900 0.000000 0.000000
													CHANNELS 3 Xrotation Yrotation Zrotation
													JOINT RightHandPinky4
													{
														OFFSET -5.847786 0.000000 0.000000
														CHANNELS 3 Xrotation Yrotation Zrotation
														End Site
														{
															OFFSET 0.000000 0.000000 0.000000
														}
													}
												}
											}
										}
									}
								}
							}
						}
					}
				}
			}
		}
	}
	JOINT LeftUpLeg
	{
		OFFSET 13.026900 -6.336304 -1.092800
		CHANNELS 3 Xrotation Yrotation Zrotation
		JOINT LeftLeg
		{
			OFFSET 0.524474 -46.096886 9.782700
			CHANNELS 3 Xrotation Yrotation Zrotation
			JOINT LeftFoot
			{
				OFFSET -0.524474 -53.427422 -12.948200
				CHANNELS 3 Xrotation Yrotation Zrotation
				JOINT LeftToeBase
				{
					OFFSET 0.192200 -14.009700 16.364100
					CHANNELS 3 Xrotation Yrotation Zrotation
					JOINT LeftToe_End
					{
						OFFSET -1.784700 -0.561700 9.474800
						CHANNELS 3 Xrotation Yrotation Zrotation
						End Site
						{
							OFFSET 0.000000 0.000000 0.000000
						}
					}
				}
			}
		}
	}
	JOINT RightUpLeg
	{
		OFFSET -12.883000 -6.336304 -1.092800
		CHANNELS 3 Xrotation Yrotation Zrotation
		JOINT RightLeg
		{
			OFFSET -0.524587 -46.096825 9.782800
			CHANNELS 3 Xrotation Yrotation Zrotation
			JOINT RightFoot
			{
				OFFSET 0.524587 -53.427383 -12.948300
				CHANNELS 3 Xrotation Yrotation Zrotation
				JOINT RightToeBase
				{
					OFFSET -0.192200 -14.009700 16.364100
					CHANNELS 3 Xrotation Yrotation Zrotation
					JOINT RightToe_End
					{
						OFFSET 1.784700 -0.561700 9.474800
						CHANNELS 3 Xrotation Yrotation Zrotation
						End Site
						{
							OFFSET 0.000000 0.000000 0.000000
						}
					}
				}
			}
		}
	}
}
MOTION
Frames: 4
Frame Time: 0.016667
0.809093 104.501854 -0.520758 9.582324 -61.717425 10.100672 15.063958 -0.206010 -4.235759 5.872403 0.563933 -2.798211 0.000000 0.000000 0.000000 5.868718 0.648186 -2.860162 -3.632887 1.437152 3.747496 -20.005952 54.836758 2.407372 0.000001 -0.000000 0.000001 1.828096 -3.192682 -12.271573 0.000000 0.000000 0.000000 -39.387399 26.350480 -34.911105 0.429367 -46.808441 0.416205 -10.315064 -0.130734 0.363005 40.109941 -15.297172 -0.360499 5.639813 28.097949 11.338839 1.088562 40.896301 22.734025 -0.000002 -0.000001 -0.000001 6.882243 2.840064 -61.140411 8.248011 7.640064 -89.897878 2.146108 8.173441 -41.827740 0.000002 0.000002 -0.000001 -2.345505 4.688869 -62.655217 8.754138 9.897081 -87.051301 1.995393 4.929280 -37.483443 -0.000002 0.000002 0.000001 -9.042457 10.045666 -60.766185 8.524098 9.508821 -66.893029 6.576567 9.896780 -70.385093 0.000001 -0.000001 -0.000002 -17.946899 14.754991 -51.485857 8.868431 8.667058 -84.811968 4.540451 8.852547 -59.152963 -0.000000 -0.000002 0.000000 0.632605 7.257349 8.700389 0.000000 0.000000 0.000000 7.936003 -9.680161 53.429879 -22.867414 36.194699 17.955440 -27.369922 10.432890 -17.813541 -2.346183 -6.100564 10.731435 2.364039 -23.806285 -8.771072 -5.012462 13.984813 5.861507 -0.000000 -0.000001 -0.000002 -0.054754 0.532096 0.738736 0.019766 -0.087307 5.078502 -0.003995 -2.004393 -2.834036 -0.000001 0.000000 -0.000001 0.348253 -5.918534 2.583824 1.432602 -4.204220 24.052101 0.133901 1.746465 -5.752987 0.000000 -0.000001 0.000003 1.205817 -11.756056 4.154788 1.794847 -3.771887 26.865405 1.319771 -3.995355 19.486905 -0.000000 0.000000 -0.000001 2.126190 -19.166867 11.319980 3.354774 -2.122239 18.828537 6.367028 -5.015714 28.949176 0.000000 0.000000 0.000001 -36.713011 11.714739 23.797846 33.621490 -6.644890 1.093991 -2.989918 -2.335978 -16.498184 -1.836411 -0.000621 -0.000027 0.000000 0.000001 0.000000 -30.995470 -19.511323 -32.733921 32.935456 3.740900 -3.787862 -8.999897 0.892552 22.876836 -0.001689 -0.000437 -0.000001 0.000000 -0.000000 -0.000000 
1.028122 103.762192 -1.824447 9.989755 -55.506731 8.361963 18.425311 -0.400562 -3.781869 7.295533 -0.352601 -0.796533 0.000000 0.000000 0.000000 7.297476 -0.185250 -0.836843 -9.419005 1.041049 2.964138 -33.847142 49.164432 3.507833 0.000000 0.000001 -0.000000 3.590633 -8.212478 -8.338660 0.000000 0.000000 0.000000 -17.336420 15.897255 -30.473750 -15.109917 -56.232012 -14.869715 -11.534128 1.944486 -6.382527 40.109938 -15.297168 -0.360491 5.639813 28.097949 11.338839 1.088568 40.896294 22.734032 -0.000001 -0.000002 0.000002 6.882245 2.840060 -61.140404 8.248012 7.640067 -89.897878 2.146107 8.173442 -41.827740 -0.000000 0.000001 0.000003 -2.345506 4.688869 -62.655224 8.754145 9.897082 -87.051294 1.995390 4.929281 -37.483443 -0.000000 -0.000000 0.000002 -9.042453 10.045658 -60.766185 8.524097 9.508827 -66.893029 6.576562 9.896780 -70.385093 -0.000001 0.000001 -0.000001 -17.946899 14.754986 -51.485860 8.868433 8.667060 -84.811968 4.540452 8.852549 -59.152969 0.000000 0.000001 0.000001 2.195469 10.570692 6.739744 0.000000 0.000000 0.000000 12.334683 -2.089135 49.300609 -23.008758 37.026790 18.727875 -25.845453 16.676400 -17.494128 0.214178 -4.319349 5.919507 1.314326 -24.654512 -5.837892 -5.255347 11.018655 5.600846 -0.000000 -0.000000 0.000001 0.333209 0.054702 1.470550 -0.415187 -0.423086 6.838807 -0.465094 -2.292376 -0.611740 0.000000 -0.000000 0.000002 -0.032236 -5.717556 3.568883 1.219212 -4.302300 24.290262 -0.087837 1.409200 -3.505395 0.000001 -0.000000 -0.000000 0.521317 -11.018108 4.548188 2.135398 -3.822163 27.589390 1.354181 -3.794898 18.081355 -0.000003 -0.000000 0.000001 0.964453 -17.509371 12.312416 4.696299 -2.397686 20.330898 6.364581 -4.542097 25.463758 0.000000 0.000001 -0.000001 -41.151156 8.030100 23.628669 34.270942 -7.815770 1.301237 -1.286793 -5.012104 -16.212368 -1.836420 -0.000595 -0.000073 -0.000000 -0.000003 -0.000000 -30.599432 -19.292337 -32.248602 36.914160 0.239102 -1.970544 -10.126216 0.212928 22.270797 -0.000452 -0.000461 0.000338 0.000000 -0.000000 0.000000 
0.390534 103.182877 -2.461200 8.554570 -43.603702 6.354001 19.040979 -0.278192 -2.127468 8.434709 -1.248277 0.996160 0.000000 0.000000 0.000000 8.432942 -1.053488 0.978027 -4.999492 -0.762671 5.645548 -37.843271 41.961018 5.245538 -0.000000 -0.000001 0.000001 3.416874 -8.568156 -4.408957 0.000000 0.000000 0.000000 -14.803021 11.945511 -33.781747 -16.458823 -59.708851 -14.596254 -9.671806 4.965351 -21.142601 40.109934 -15.297170 -0.360498 5.639812 28.097954 11.338839 1.088561 40.896294 22.734018 0.000002 0.000001 -0.000001 6.882245 2.840062 -61.140404 8.248013 7.640064 -89.897871 2.146106 8.173443 -41.827734 0.000000 -0.000000 0.000001 -2.345508 4.688871 -62.655217 8.754147 9.897080 -87.051301 1.995387 4.929281 -37.483443 0.000000 0.000002 0.000001 -9.042453 10.045660 -60.766185 8.524091 9.508821 -66.893029 6.576559 9.896780 -70.385086 0.000001 -0.000002 0.000000 -17.946897 14.754991 -51.485860 8.868432 8.667055 -84.811968 4.540451 8.852548 -59.152963 0.000002 -0.000001 0.000001 2.138324 11.266868 6.137830 0.000000 0.000000 0.000000 17.411414 3.777409 45.935956 -16.048067 34.606793 15.226660 -24.851901 19.175847 -10.594055 3.146379 -2.974233 1.047977 0.338226 -25.670431 -2.901105 -5.541136 8.094001 5.279799 0.000004 -0.000000 0.000000 0.732167 -0.412263 2.206423 -0.830870 -0.784105 8.596231 -0.906451 -2.618068 1.613787 0.000001 -0.000001 -0.000000 -0.419553 -5.531674 4.555024 1.000263 -4.405247 24.527542 -0.286463 1.057027 -1.251765 -0.000000 -0.000000 0.000000 -0.173227 -10.295278 4.954420 2.478530 -3.867627 28.313796 1.403061 -3.593199 16.677556 0.000003 -0.000002 -0.000001 -0.259746 -15.908909 13.341560 6.053393 -2.603406 21.859100 6.418847 -4.093787 21.977064 -0.000002 -0.000001 0.000002 -45.119017 4.827319 18.940982 33.514109 -12.848402 0.974349 1.618593 -7.349114 -14.294146 -1.836396 -0.000682 -0.000200 0.000000 0.000002 0.000000 -26.150967 -21.185946 -34.100061 38.916919 -5.707162 0.578076 -10.804208 -1.005973 26.113176 -0.482151 -0.000467 -0.047597 0.000000 0.000000 -0.000000 
-1.062855 103.201683 -2.520994 5.207362 -30.136123 6.297694 17.951112 0.435626 -2.379485 7.663520 -0.055113 1.868093 0.000000 0.000000 0.000000 7.656342 0.145389 1.807650 11.921183 -3.328158 12.513455 -29.858223 34.396559 5.825773 0.000000 -0.000000 0.000001 1.265623 -7.131529 -5.657124 0.000000 0.000000 0.000000 -23.592600 7.588116 -38.951329 11.776999 -59.937123 11.769799 -8.770867 10.933223 -13.361124 40.109938 -15.297168 -0.360493 5.639813 28.097949 11.338838 1.088558 40.896297 22.734029 0.000000 0.000002 -0.000002 6.882244 2.840057 -61.140404 8.248011 7.640064 -89.897871 2.146108 8.173442 -41.827740 -0.000000 -0.000000 0.000001 -2.345510 4.688869 -62.655217 8.754148 9.897078 -87.051301 1.995390 4.929278 -37.483443 0.000000 -0.000002 -0.000004 -9.042457 10.045659 -60.766178 8.524092 9.508820 -66.893029 6.576562 9.896779 -70.385093 -0.000001 -0.000002 0.000001 -17.946904 14.754990 -51.485853 8.868428 8.667056 -84.811968 4.540452 8.852550 -59.152963 -0.000002 -0.000001 0.000001 0.254897 10.476042 11.937811 0.000000 0.000000 0.000000 21.048092 3.074643 42.497741 -10.393990 28.226107 14.523709 -24.135635 14.464039 8.084086 6.401482 -2.095821 -3.851043 -0.551815 -26.850015 0.038781 -5.855355 5.180047 4.884401 -0.000002 0.000003 -0.000000 1.142051 -0.868710 2.949705 -1.226178 -1.169348 10.346296 -1.326161 -2.978475 3.837909 -0.000000 -0.000001 -0.000000 -0.813170 -5.361016 5.543583 0.782479 -4.510064 24.763226 -0.458293 0.691598 1.004496 0.000003 0.000000 -0.000001 -0.877473 -9.587928 5.372605 2.822591 -3.905258 29.040079 1.466630 -3.390921 15.274029 0.000001 -0.000002 0.000003 -1.545737 -14.365768 14.409163 7.422751 -2.738229 23.406268 6.527018 -3.677034 18.490908 -0.000000 0.000000 -0.000002 -45.057928 5.820772 11.391222 29.947313 -18.022561 0.124089 5.617124 -11.924204 -11.933104 -1.836408 -0.000878 -0.000397 -0.000000 0.000000 0.000000 -19.159055 -23.122175 -36.100418 40.642009 -11.615268 1.845210 -10.522986 -1.805224 27.067792 -5.801857 -0.275941 2.870010 0.000000 0.000000 -0.000000 
